<svg xmlns="http://www.w3.org/2000/svg" width="24" height="24" viewBox="0 0 24 24" fill="currentColor">
  <path d="M12 .5A11.5 11.5 0 0 0 .5 12c0 5.06 3.28 9.35 7.83 10.86.57.1.78-.25.78-.56l-.01-2.02c-3.18.69-3.85-1.37-3.85-1.37-.52-1.33-1.28-1.69-1.28-1.69-1.05-.72.08-.71.08-.71 1.16.08 1.77 1.19 1.77 1.19 1.03 1.77 2.7 1.26 3.36.96.1-.75.4-1.26.72-1.55-2.54-.29-5.21-1.27-5.21-5.65 0-1.25.45-2.27 1.19-3.07-.12-.29-.52-1.46.11-3.04 0 0 .98-.31 3.2 1.17.93-.26 1.92-.39 2.91-.39.99 0 1.98.13 2.91.39 2.22-1.48 3.2-1.17 3.2-1.17.63 1.58.23 2.75.11 3.04.74.8 1.19 1.82 1.19 3.07 0 4.39-2.67 5.35-5.22 5.64.41.36.77 1.07.77 2.16l-.01 3.2c0 .31.21.67.79.56A11.51 11.51 0 0 0 23.5 12 11.5 11.5 0 0 0 12 .5z"/>
</svg>
